<?xml version="1.0" encoding="UTF-8" standalone="no"?>
<!DOCTYPE svg PUBLIC "-//W3C//DTD SVG 1.1//EN"
"http://www.w3.org/Graphics/SVG/1.1/DTD/svg11.dtd">


<!-- Page 1 -->
<svg x="0" y="0" width="991" height="741" viewBox="0 0 991 741" version="1.1" xmlns="http://www.w3.org/2000/svg" xmlns:xlink="http://www.w3.org/1999/xlink"
style="display: block;margin-left: auto;margin-right: auto;">
<defs>
<clipPath id="c0_1"><path d="M0,741L0,0L991.5,0l0,741Z" /></clipPath>

<style type="text/css"><![CDATA[

.g1_1{
fill: #231F20;
}
.g2_1{
fill: none;
stroke: #231F20;
stroke-width: 0.38194445;
stroke-linecap: butt;
stroke-linejoin: miter;
}
.g3_1{
fill: #D29F57;
}
.g4_1{
fill: #f2825b;
}
.g5_1{
fill: none;
stroke: #FFFFFF;
stroke-width: 0.38194445;
stroke-linecap: butt;
stroke-linejoin: miter;
}
.g6_1{
fill: #754C28;
}
.g7_1{
fill: none;
stroke: #754C28;
stroke-width: 0.38194445;
stroke-linecap: butt;
stroke-linejoin: miter;
}
.g8_1{
fill: #D6802B;
}
.g9_1{
fill: #D3A156;
}
.g10_1{
fill: #A6A8AB;
}
.g11_1{
fill: #BBBDBF;
}
.g12_1{
fill: #929497;
}
.g13_1{
fill: #603813;
}
.g14_1{
fill: none;
stroke: #603813;
stroke-width: 0.38194445;
stroke-linecap: butt;
stroke-linejoin: miter;
}
.g15_1{
fill: #D0D2D3;
}
.g16_1{
fill: none;
stroke: #BBBDBF;
stroke-width: 0.38194445;
stroke-linecap: butt;
stroke-linejoin: miter;
}
.g17_1{
fill: none;
stroke: #D0D2D3;
stroke-width: 0.38194445;
stroke-linecap: butt;
stroke-linejoin: miter;
}
.g18_1{
fill: none;
stroke: #A6A8AB;
stroke-width: 0.38194445;
stroke-linecap: butt;
stroke-linejoin: miter;
}
.g19_1{
fill: #C3996B;
}
.g20_1{
fill: #A87C4F;
}
.g21_1{
fill: none;
stroke: #00ADEE;
stroke-width: 0.38194445;
stroke-linecap: butt;
stroke-linejoin: miter;
}
.g22_1{
fill: #F9B317;
}
.g23_1{
fill: #FAB216;
}


]]></style>

</defs>
<path d="M0,0
L0,741
L991,741
L991,0 Z " 
fill="none" stroke="none" />
<image x="0" y="0" width="993" height="744" xlink:href="1/shade/1.png" />
<g clip-path="url(#c0_1)">
<path d="M616.3,497.8c0,0,-14.3,11.7,-24.6,52.2c0,0,28,30.8,27.9,62.7l35.5,18.5c0,0,19.6,60.9,79.3,95c0,0,-20.3,-40.9,-3.1,-65.5c0,0,9.8,-22.2,60.9,-41.8c0,0,-1.9,-30.1,29.5,-57.2c0,0,72.5,-25.9,89.1,-52.2c0,0,23.1,0,26.9,-1.9c0,0,25.4,-60.2,17.4,-97.1c0,0,15.8,-8.6,11.9,-20.9c0,0,-10.7,-13.5,-10.1,-28.6l-4.3,9.4c0,0,-2.5,-54.2,-6.1,-59.3c0,0,-17.3,-23.6,-16.6,-31l-1.3,-19.6L860.4,205.8c0,0,-11.7,-24,-25.8,-31.4l21.5,0L821,162.3L847.5,138c0,0,-40,15.3,-73.8,12c0,0,-38.7,-3.5,-47.9,-12.3l4.9,-2.6L718.3,108.6l-20.2,-4.3c0,0,-48.9,-40,-51.2,-43.3C644.6,57.6,594.2,-21,487.2,34.9c0,0,56.6,-12.6,87.9,26.1L564.5,77.1c0,0,-45.7,-3.7,-50.2,-35.7c0,0,-20.5,35.3,36.5,65.6l-8.2,23.3l-11.5,4.1l0.4,25c0,0,11.5,-13,22.9,-14.5l-1.7,10.4c0,0,7.4,9,7.4,10.2c0,1.2,-3.4,7.1,-1.6,12.6l7.7,20c0,0,-16,-6.8,-18.1,-6.5c0,0,-3.8,1.6,-1.4,10.5c0,0,-22.9,-7.9,-23.8,18l-40.6,31.8c0,0,-30.9,3,-63.1,51.4L381.9,314c0,0,-107.4,-121.9,-184.8,-151.7l0,37.7l10.4,10.7l3.1,44.9l13.5,14l1.9,41.5l13.5,11.5l6.7,34.4L88.2,311.1L23.9,334.2l51.4,44.5l197.6,38.5c0,0,25.8,59.1,107.4,123.8l-0.5,12.7l56.2,39l0,12.7l40.2,29.9l0.4,8.2l49.2,18.4c0,0,-3,-109,-56.5,-208.2l53.6,9.4c0,0,-8.7,39.7,-22.1,58.6l43.8,20.5c0,0,-7,-44.2,4.1,-58.6c0,0,7,13.2,16,10.3l14.3,10c0,0,5.8,1.9,9.7,-4.3l14.9,2.1c0,0,2.1,0.8,12.7,-3.9Z" class="g1_1" />
<path d="M616.3,497.8c0,0,-14.3,11.7,-24.6,52.2c0,0,28,30.8,27.9,62.7l35.5,18.5c0,0,19.6,60.9,79.3,95c0,0,-20.3,-40.9,-3.1,-65.5c0,0,9.8,-22.2,60.9,-41.8c0,0,-1.9,-30.1,29.5,-57.2c0,0,72.5,-25.9,89.1,-52.2c0,0,23.1,0,26.9,-1.9c0,0,25.4,-60.2,17.4,-97.1c0,0,15.8,-8.6,11.9,-20.9c0,0,-10.7,-13.5,-10.1,-28.6l-4.3,9.4c0,0,-2.5,-54.2,-6.1,-59.3c0,0,-17.3,-23.6,-16.6,-31l-1.3,-19.6L860.4,205.8c0,0,-11.7,-24,-25.8,-31.4l21.5,0L821,162.3L847.5,138c0,0,-40,15.3,-73.8,12c0,0,-38.7,-3.5,-47.9,-12.3l4.9,-2.6L718.3,108.6l-20.2,-4.3c0,0,-48.9,-40,-51.2,-43.3C644.6,57.6,594.2,-21,487.2,34.9c0,0,56.6,-12.6,87.9,26.1L564.5,77.1c0,0,-45.7,-3.7,-50.2,-35.7c0,0,-20.5,35.3,36.5,65.6l-8.2,23.3l-11.5,4.1l0.4,25c0,0,11.5,-13,22.9,-14.5l-1.7,10.4c0,0,7.4,9,7.4,10.2c0,1.2,-3.4,7.1,-1.6,12.6l7.7,20c0,0,-16,-6.8,-18.1,-6.5c0,0,-3.8,1.6,-1.4,10.5c0,0,-22.9,-7.9,-23.8,18l-40.6,31.8c0,0,-30.9,3,-63.1,51.4L381.9,314c0,0,-107.4,-121.9,-184.8,-151.7l0,37.7l10.4,10.7l3.1,44.9l13.5,14l1.9,41.5l13.5,11.5l6.7,34.4L88.2,311.1L23.9,334.2l51.4,44.5l197.6,38.5c0,0,25.8,59.1,107.4,123.8l-0.5,12.7l56.2,39l0,12.7l40.2,29.9l0.4,8.2l49.2,18.4c0,0,-3,-109,-56.5,-208.2l53.6,9.4c0,0,-8.7,39.7,-22.1,58.6l43.8,20.5c0,0,-7,-44.2,4.1,-58.6c0,0,7,13.2,16,10.3l14.3,10c0,0,5.8,1.9,9.7,-4.3l14.9,2.1c0,0,2.1,0.8,12.7,-3.9Z" class="g2_1" />
</g>
<path d="M847.5,382.4c0,0,-0.8,-57.4,-59.9,-88.5c0,0,23.8,3.3,33.7,11.4c0,0,-36.1,-38.5,-68.1,-50.8c0,0,-35.4,-10.6,-68.6,10.9c0,0,14.1,60.2,94,68.8c0,0,-17.2,1.3,-20.9,4.3c0,0,-8,22.6,14.8,43.9c0,0,51.6,-10.2,75,0Z" class="g3_1" />
<path d="M740.5,231.6c0,0,72.6,-20.3,124.2,37.5c0,0,-8,39.9,21.5,69.4c0,0,-11.1,-41.1,-3.1,-51.6c0,0,30.8,13.3,48,73.3c0,0,-28.3,-19.8,-33.2,-19.2c0,0,44.3,35,36.3,103.9c0,0,-30.2,26.4,-51.1,22.7c0,0,24,11.1,48.6,-7.3c0,0,-2.5,23.3,-6.1,25.8c0,0,-12.3,12.9,-57.8,5.5c0,0,-85.5,3.7,-150,-38.1c0,0,118,28.3,137.7,16c0,0,-31.4,-0.6,-53.5,-12.3c0,0,-53.5,-19.1,-114.4,-17.2c0,0,11.7,-9.2,14.8,-14.8c0,0,-17.2,8.6,-27.7,8.6c0,0,-25.2,-3.7,-45.5,1.3c0,0,-33.2,-27.7,-46.7,-13.6c0,0,-7.4,-8.6,-7.4,-11c0,0,19.7,-17.2,61.5,-16c0,0,60.3,7.4,83,8c0,0,48.6,-14.2,84.8,-12.9c0,0,40,5.5,69.5,10.4c0,0,17.2,0,25.8,-7.4c0,0,-28.2,0.5,-35.6,-10.2c0,0,-0.8,-37,-25.8,-61.1l13.5,7.4c0,0,-43.7,-79.3,-111.3,-97.1Z" class="g3_1" />
<path d="M915.1,342.8l8,5.6c0,0,-7.3,-37.2,-32.6,-43.7c0,0,22.1,23.4,24.6,38.1Z" class="g4_1" />
<path d="M915.1,342.8l8,5.6c0,0,-7.3,-37.2,-32.6,-43.7c0,0,22.1,23.4,24.6,38.1Z" class="g5_1" />
<path d="M770,238.3c0,0,49.8,-6.7,86.1,88.3c0,0,-33.8,-69.2,-86.1,-88.3Z" class="g4_1" />
<path d="M770,238.3c0,0,49.8,-6.7,86.1,88.3c0,0,-33.8,-69.2,-86.1,-88.3Z" class="g5_1" />
<path d="M872.7,404.9c0,0,-68.3,-19,-146.9,0c0,0,92.8,-2.4,146.9,0Z" class="g4_1" />
<path d="M872.7,404.9c0,0,-68.3,-19,-146.9,0c0,0,92.8,-2.4,146.9,0Z" class="g5_1" />
<path d="M811.2,523.6c0,0,-56.9,-13.3,-70.2,-25.1c-0.7,-0.7,-1.3,-1.3,-1.7,-2c-8.6,-12.3,-103.9,58.4,-46.1,172.2c0,0,-27.1,-91.6,44.9,-142.7c0,0,-22.8,27.7,-25.3,64.6c0,0,40.6,-58.4,98.4,-67Z" class="g6_1" />
<path d="M811.2,523.6c0,0,-56.9,-13.3,-70.2,-25.1c-0.7,-0.7,-1.3,-1.3,-1.7,-2c-8.6,-12.3,-103.9,58.4,-46.1,172.2c0,0,-27.1,-91.6,44.9,-142.7c0,0,-22.8,27.7,-25.3,64.6c0,0,40.6,-58.4,98.4,-67Z" class="g7_1" />
<path d="M800.1,556.8c0,0,-89.1,17.8,-94.6,111.9c0,0,13.5,-56,71.9,-68.9Z" class="g6_1" />
<path d="M800.1,556.8c0,0,-89.1,17.8,-94.6,111.9c0,0,13.5,-56,71.9,-68.9l22.7,-43Z" class="g7_1" />
<path d="M935.1,344.7c0,0,5.9,-24.6,0,-35.7c0,0,-23.7,-31.3,-44.6,-41.2c0,0,38.2,37.5,44.6,76.9Z" class="g6_1" />
<path d="M923.1,280.1c0,0,-11.7,-41.8,-84.8,-65.1c0,0,74.3,62.1,84.8,65.1Z" class="g6_1" />
<path d="M844.4,228.1c0,0,-45.5,-27.3,-66.4,-27.3c0,0,-30.1,1.7,-66.4,37.4c0,0,61.5,-39.3,132.8,-10.1Z" class="g6_1" />
<path d="M755.1,200.8c0,0,-51.5,-11.6,-73.6,51.1c0,0,36.6,-47.4,73.6,-51.1Z" class="g6_1" />
<path d="M829.7,199.6l-48,-25.8c0,0,-72.5,-3.1,-100.2,-5.5c0,0,18.4,11,19.7,15.6l-16.6,-4.6l16.6,25.2c0,0,47.3,-38.1,128.5,-4.9Z" class="g8_1" />
<path d="M629.9,155.3l32.3,11.5l-8.2,2.7c0,0,35.3,13.7,13.6,41.2c0,0,-19.3,-23.8,-25.4,-27.7c0,0,-16.4,-9.6,-23,-9.6c0,0,1.2,-13.5,10.7,-18.1Z" class="g9_1" />
<path d="M620.8,149.6l-7.3,-9c0,0,-10.3,-1.6,-14,4.5c0,0,-4.9,5.7,-9,12.7c0,0,-5.7,4.6,-8.2,4.5c0,0,1.7,2.5,2.9,2.5c0,0,-11.9,-4.1,-16.4,-2.5c0,0,-6.2,4.5,-3.7,12.3c0,0,7,22.5,10,23.4l12.1,2c0,0,0.9,-11.5,10.7,-17c0,0,10.2,-3.9,-0.8,-6.3c0,0,-8.6,0,-11.5,2.8c0,0,2,-8.2,-1.2,-10c0,0,15.9,6.3,19.2,4.3c0,0,1.3,-13.9,6.2,-16.8Z" class="g9_1" />
<path d="M589.7,138c0,0,-10.7,-1.5,-14.6,2.4c0,0,-9.5,9.6,-10.6,10l0,-10c0,0,-4.3,11.7,-9.2,14.9c0,0,7.3,4.2,11,7c0,0,1.7,-2.9,2.1,-4.5c0.4,-1.6,5.7,3.3,13.5,-4.9c0,0,2.9,-13,7.8,-14.9Z" class="g9_1" />
<path d="M539.3,146.7l0,-8.7c0,0,38.5,-19.9,81.5,-20.8c0,0,60,3.6,86.9,20.5c0,0,-53.3,-13.9,-88.5,-9.8c0,0,-55.7,3.7,-79.9,18.8Z" class="g10_1" />
<path d="M649.5,113.5l-11,-25.8c0,0,24.8,14.8,33.6,29.5c0,0,-18.1,-3.7,-22.6,-3.7Z" class="g11_1" />
<path d="M641.7,111.1l-6.1,-14c0,0,-8.6,7.4,-22.5,5.4l2,8.6Z" class="g12_1" />
<path d="M602.4,102.5l0,8.6c0,0,-37.7,5.3,-45.5,12.3c0,0,3.3,-27.1,18.2,-41.4c0,0,7.2,20.4,27.3,20.5Z" class="g11_1" />
<path d="M579.6,97.1l-7.1,-5.7c0,0,-9.7,15.9,-8,25.8c0,0,5.9,-17.6,15.1,-20.1Z" class="g4_1" />
<path d="M579.6,97.1l-7.1,-5.7c0,0,-9.7,15.9,-8,25.8c0,0,5.9,-17.6,15.1,-20.1Z" class="g5_1" />
<path d="M598.7,72.6L583.1,65.2c0,0,-0.4,38.5,37.7,29.1c0,0,20.5,-11.1,10.7,-31.2c0,0,-27.1,-48.3,-105.3,-34.4c0,0,51.6,3.3,72.5,43.9Z" class="g11_1" />
<path d="M620.8,73.8c0,0,11.1,-36.9,-63.9,-43c0,0,37.7,1.2,63.9,43Z" class="g4_1" />
<path d="M620.8,73.8c0,0,11.1,-36.9,-63.9,-43c0,0,37.7,1.2,63.9,43Z" class="g5_1" />
<path d="M629.9,219.5l2.8,2.6c0,0,-6.5,19.3,-11.9,19.7c0,0,-9.8,0.6,-11.8,-3.6c0,0,0.4,-6.9,20.9,-18.7Z" class="g9_1" />
<path d="M668.4,274.2c0,0,18.4,-24.6,3.7,-40.6c0,0,-33.2,-52.9,-75.9,-33.6c0,0,-2.4,4.5,3.7,7.4c0,0,11.2,-10.7,40.2,3.3l-13.3,-2.9c0,0,57.2,27.9,41.6,66.4Z" class="g8_1" />
<path d="M603.6,328.7c0,0,1.7,-7.5,7,-11.6c0,0,8.6,-4.8,10.2,-9.3c0,0,0.4,12.3,-1.6,15.6c0,0,9.4,-7.4,7.6,-22.6c0,0,5.9,11.9,11.7,14c0,0,-4,-11.9,-2.2,-20.9c0,0,5,-16.9,10.6,-28.3c0,0,6.4,8.6,0,27c0,0,25.6,-39.8,-3.5,-64.5l-22.6,57.6c0,0,-18.8,16,-17.2,43Z" class="g8_1" />
<path d="M562.2,300.8c0,0,-19.6,-60.6,-65.1,-48.9c0,0,14.7,-20.7,36.4,-30.6c0,0,22.7,-4.7,31,4.6c0,0,-17.4,0.3,-26,7.3c0,0,35.9,-9.5,73.3,23c0,0,-13.9,21.7,-45.1,26.2l26,2c0,0,-26.4,15.6,-30.5,16.4Z" class="g3_1" />
<path d="M546.7,224.2l-9.1,0c0,0,-20,9.8,-29.9,20.5c0,0,26,-18.8,39,-20.5Z" class="g4_1" />
<path d="M546.7,224.2l-9.1,0c0,0,-20,9.8,-29.9,20.5c0,0,26,-18.8,39,-20.5Z" class="g5_1" />
<path d="M471.2,260.5c0,0,51.7,-13.8,73.4,32.6c0,0,-19.3,43,-94.3,55.7L438.5,318.9c0,0,2.4,34.4,-13.2,59.8c0,0,-22.9,-50.4,-38.9,-60.1c0,0,35.7,-5.5,42.6,-5.5c0,0,15.6,-29.8,42.2,-52.6Z" class="g3_1" />
<path d="M492.2,263.5c0,0,-10.7,-2.8,-16,0c0,0,-32.4,28.3,-42.7,47.6c0,0,37.1,-41.8,58.7,-47.6Z" class="g4_1" />
<path d="M492.2,263.5c0,0,-10.7,-2.8,-16,0c0,0,-32.4,28.3,-42.7,47.6c0,0,37.1,-41.8,58.7,-47.6Z" class="g5_1" />
<path d="M372.3,382.4c0,0,-73.8,-100.3,-153.1,-151.7l0,14c0,0,87.9,67.8,132.8,134Z" class="g10_1" />
<path d="M319.4,370.4c0,0,-50.4,-57.1,-87.9,-79.8l0,10.2c0,0,52.2,40.2,70.1,64.8Z" class="g10_1" />
<path d="M286.8,360.2L255.5,336.7c0,0,-1.9,14.8,3.7,17.8Z" class="g13_1" />
<path d="M286.8,360.2L255.5,336.7c0,0,-1.9,14.8,3.7,17.8l27.6,5.7Z" class="g14_1" />
<path d="M332.3,427.1l-45.5,-9.9c0,0,48,67,72.6,86.7c0,0,-19.7,-69.5,-27.1,-76.8Z" class="g13_1" />
<path d="M332.3,427.1l-45.5,-9.9c0,0,48,67,72.6,86.7c0,0,-19.7,-69.5,-27.1,-76.8Z" class="g14_1" />
<path d="M366.1,433.2c0,0,35.7,57.8,51,132.2l-17.8,-8.6c0,0,-16,-87.3,-48.5,-126.7Z" class="g10_1" />
<path d="M391.9,438.1l19.1,4.3c0,0,48.2,88,54.5,163L446,589.4c0,0,-11.7,-88.4,-54.1,-151.3Z" class="g10_1" />
<path d="M530.3,430.1l-3.1,12.3L48.3,336.7L88.2,322.6Z" class="g15_1" />
<path d="M530.3,430.1l-3.1,12.3L48.3,336.7L88.2,322.6L530.3,430.1Z" class="g16_1" />
<path d="M88.9,328.7L518.6,434.4L68.6,336.7Z" class="g4_1" />
<path d="M88.9,328.7L518.6,434.4L68.6,336.7l20.3,-8Z" class="g5_1" />
<path d="M544.6,424.6c0,0,10.7,-58.4,9.8,-67.6l20.7,13.4l-24.5,59.7Z" class="g15_1" />
<path d="M544.6,424.6c0,0,10.7,-58.4,9.8,-67.6l20.7,13.4l-24.5,59.7l-6,-5.5Z" class="g17_1" />
<path d="M533.3,465.2l6.8,0l-3.4,10.4l7.9,6.8c0,0,-10.6,27,-11.3,43l-19.6,-9.2c0,0,20.3,-27.7,19.6,-51Z" class="g10_1" />
<path d="M533.3,465.2l6.8,0l-3.4,10.4l7.9,6.8c0,0,-10.6,27,-11.3,43l-19.6,-9.2c0,0,20.3,-27.7,19.6,-51Z" class="g18_1" />
<path d="M625.6,444.9c0,0,-8,-3.1,-9.3,-6.8c0,0,-8.6,19.7,4.6,36.9Z" class="g19_1" />
<path d="M605.3,438.1c0,0,-8,-8,-11.7,-3.7c0,0,-8.4,42.5,9.9,43.7c0,0,5.5,-5.5,1.8,-40Z" class="g20_1" />
<path d="M588.7,438.1c0,0,-5,-12.9,-13.6,-8c0,0,-4.3,34.5,6.8,40.6c0,0,4.9,2.5,3.7,-10.1Z" class="g20_1" />
<path d="M568.4,425.2c0,0,4.9,4.3,0,17.2c0,0,-10.7,32,-14,25.2c0,0,-2.6,-27,14,-42.4Z" class="g13_1" />
<path d="M533.5,420.9L443.4,402.5l-3.3,-6l10.2,-26c0,0,75,-7.5,114.4,-56.5c0,0,76.2,37.3,107.4,43c0,0,-2.1,14.3,12.5,18c0,0,-8,7.3,0,16.4c0,0,-99,-18,-122.2,22.1c0,0,11.7,-35.6,24,-48.3c0,0,-23.4,-18.9,-41.8,-20.5c0,0,-1.2,60.2,-11.1,76.2Z" class="g4_1" />
<path d="M533.5,420.9L443.4,402.5l-3.3,-6l10.2,-26c0,0,75,-7.5,114.4,-56.5c0,0,76.2,37.3,107.4,43c0,0,-2.1,14.3,12.5,18c0,0,-8,7.3,0,16.4c0,0,-99,-18,-122.2,22.1c0,0,11.7,-35.6,24,-48.3c0,0,-23.4,-18.9,-41.8,-20.5c0,0,-1.2,60.2,-11.1,76.2Z" class="g21_1" />
<path d="M428.7,444.9l21,4.3c0,0,56,118,60.3,182L485.4,612.7c0,0,-21.1,-110.6,-56.7,-167.8Z" class="g13_1" />
<path d="M428.7,444.9l21,4.3c0,0,56,118,60.3,182L485.4,612.7c0,0,-21.1,-110.6,-56.7,-167.8Z" class="g14_1" />
<path d="M417.1,393.9c0,0,-90.3,-139.6,-206.5,-214l2.4,15.9c0,0,107,83.7,180.2,191.9Z" class="g13_1" />
<path d="M417.1,393.9c0,0,-90.3,-139.6,-206.5,-214l2.4,15.9c0,0,107,83.7,180.2,191.9l23.9,6.2Z" class="g14_1" />
<path d="M813.1,155.3c0,0,-27.7,8,-47.1,6.8c0,0,-20.6,-1.2,-40.2,-11.7c0,0,-35.7,-18.4,-67.1,-10.4c0,0,38.8,16.6,52.9,13.5c0,0,-38.7,14.4,-84.8,-15.5c0,0,19.7,20.1,51,24.2c0,0,23.4,4.2,28.3,6.7c0,0,31.3,17.8,45.5,14.7L734.4,170.1c0,0,19,8.6,39.9,8.6c0,0,48.6,3.7,60.3,8c0,0,-24,-16.6,-46.8,-15.4c0,0,21.6,-11.7,25.3,-16Z" class="g22_1" />
<path d="M592.7,204.1l0,-6.5L604,191l-7.3,0l7.3,-8c0,0,32.8,-1.8,49.6,21.1c0,0,-10.6,-6.2,-13.5,-4.1c0,0,28.9,19.7,39.8,25.9c0,0,-7,-3.3,-13.6,-3.7c0,0,13.1,9.8,11.9,25.4c0,0,-16.3,-26.5,-31.3,-32.3l10.4,2.3c0,0,-20.1,-19.6,-38.1,-19.6c0,0,-16.4,0.4,-22.5,7.8Z" class="g23_1" />
<path d="M642.2,228.1c0,0,-2,13.3,-7.2,19.5l0,-19.5c0,0,-6.4,5.1,-12.1,19.5c0,0,1.2,12.3,-13.1,26.6l11.4,-6.4c0,0,-6.5,18.7,-17.2,24l14,-4.1c0,0,-11.9,9.5,-14,23.4c0,0,15.2,-7.4,21.6,-20.1l2.6,3.3c0,0,1.2,-10.7,9.4,-20.1c0,0,6.6,-11.9,4.6,-19.3c0,0,7.7,7.2,7.3,14.7c0,0,7.4,-36.3,-7.3,-41.5Z" class="g23_1" />
<path d="M566.8,169.7l7.6,22.7c0,0,-12.7,-20.9,-7.6,-22.7Z" class="g4_1" />
<path d="M566.8,169.7l7.6,22.7c0,0,-12.7,-20.9,-7.6,-22.7Z" class="g5_1" />
<path d="M606.5,144.1c0,0,-5.7,-0.2,-7.7,2.8c0,0,-6.8,10.9,-6.9,13.8c0,0,6.6,-8.5,8.7,-12.3c0,0,1.2,-3.1,5.9,-4.3Z" class="g4_1" />
<path d="M606.5,144.1c0,0,-5.7,-0.2,-7.7,2.8c0,0,-6.8,10.9,-6.9,13.8c0,0,6.6,-8.5,8.7,-12.3c0,0,1.2,-3.1,5.9,-4.3Z" class="g5_1" />

</svg>
